# xmcd CD database file
#
# Track frame offsets:
#	150
#	23517
#	42900
#	55602
#	74192
#	95370
#	111977
#	134172
#	150042
#	171237
#	188600
#	203975
#	220752
#
# Disc length: 3272 seconds
#
# Revision: 1
# Processed by: cddbd v1.5.1PL2 Copyright (c) Steve Scherf et al.
# Submitted via: CDex 1.51
#
DISCID=b30cc60d
DTITLE=Hank Jones - 'Round Midnight
DYEAR=2006
DGENRE=Jazz
TTITLE0=My Romance
TTITLE1=Someone To Watch Over Me
TTITLE2=Someday My Prince Will Come
TTITLE3=It's The Talk Of The Town
TTITLE4=Willow Weep For Me
TTITLE5=All The Things You Are
TTITLE6='Round Midnight
TTITLE7=The Days Of Wine And Roses
TTITLE8=Speak Low
TTITLE9=It's A Sin To Tell A Lie
TTITLE10=Tea For Two
TTITLE11=For You
TTITLE12=In A Sentimental Mood
EXTD=YEAR: 2006
EXTT0=
EXTT1=
EXTT2=
EXTT3=
EXTT4=
EXTT5=
EXTT6=
EXTT7=
EXTT8=
EXTT9=
EXTT10=
EXTT11=
EXTT12=
PLAYORDER=
